<svg xmlns="http://www.w3.org/2000/svg" width="924.256" height="530.591" xmlns:v="https://vecta.io/nano"><path d="M16.126 159.262c-4.238 1.327-8.862.29-12.127-2.721s-4.673-7.536-3.693-11.867C7.53 114.622 34.998 41.128 135.064 10.217c43.345-13.39 84.914-13.618 123.5-.684 31.744 10.596 52.817 27.178 62.897 35.193 5.333 4.219 6.236 11.963 2.017 17.297q-.038.048-.076.095c-4.329 5.345-12.144 6.232-17.561 1.993-18.263-14.39-73.684-58.105-163.507-30.358-87.706 27.093-111.531 90.466-117.71 116.394a12.23 12.23 0 0 1-8.498 9.117zm272.74 170.219c-.994.321-2.025.515-3.068.577-78.175 4.21-127.913-60.735-129.955-63.443l-.379-.625c-1.246-1.933-31.342-47.723-18.093-84.088 6.086-16.625 19.544-28.294 40.116-34.649 19.133-5.91 34.789-4.162 48.115 5.354 10.927 7.753 17.93 19.315 24.717 30.48 14.116 23.182 22.768 34.977 49.6 28.172 11.781-2.99 17.282-12.201 19.795-19.376 6.766-19.525.77-46.143-15.096-66.281-20.497-26.126-77.86-69.52-148.634-47.657-30.223 9.336-54.958 27.734-71.522 53.068-13.722 21.024-21.699 47.137-21.874 71.488-.275 45.341 36.884 104.991 37.236 105.532a12.29 12.29 0 0 1-3.906 16.937q-.057.036-.114.071c-5.834 3.639-13.508 1.921-17.235-3.857-1.677-2.728-41.356-66.33-41.036-118.732.445-56.8 34.961-124.588 111.154-148.125 35.218-10.879 72.229-9.051 107.058 5.229 26.995 11.136 51.979 29.57 68.497 50.619 21.098 26.868 28.53 62.038 18.926 89.487-6.403 18.3-19.659 30.926-37.275 35.441-45.914 11.679-63.9-17.726-77.018-39.177-13.47-21.991-20.921-32.301-44.202-25.11-12.783 3.949-20.659 10.277-23.971 19.368-4.507 12.428-.236 28.358 4.141 39.525q.068.175.136.349a100.96 100.96 0 0 0 25.613 37.253c18.012 16.634 51.451 40.347 94.07 38.06a12.31 12.31 0 0 1 13.048 11.522q.004.059.007.118a12.58 12.58 0 0 1-8.852 12.472zm-94.798 23.349a12.62 12.62 0 0 1-9.871-1.031c-38.557-21.846-65.625-51.228-85.116-92.41l-.078-.254c-12.284-27.458-19.679-69.409-3.367-104.866 12.042-26.162 34.646-44.552 67.071-54.568 38.35-11.847 74.059-3.125 103.366 25.103a153.17 153.17 0 0 1 31.984 45.298 12.52 12.52 0 0 1-23.031 9.804 128.26 128.26 0 0 0-26.966-37.76c-22.59-21.492-48.85-27.847-78.142-18.799-25.313 7.819-42.743 21.643-51.666 41.092-12.867 27.994-6.243 62.949 3.371 84.462 17.186 36.423 41.025 62.258 74.961 81.451a12.26 12.26 0 0 1 5.785 7.383c.873 3.13.466 6.48-1.13 9.311q-.047.083-.095.166a12.57 12.57 0 0 1-7.075 5.617z" fill="#a51818"/><circle cx="198.128" cy="213.768" r="15.949" fill="#e6e6e6"/><path d="M485.703 408.52a6.57 6.57 0 0 1-.984-.074 6.46 6.46 0 0 1-4.261-2.569l-8.761-11.879a6.5 6.5 0 0 1 1.373-9.089l74.899-55.24a6.5 6.5 0 0 1 9.09 1.373l8.76 11.878c2.131 2.889 1.517 6.958-1.372 9.09l-74.899 55.24c-1.112.825-2.46 1.27-3.845 1.27z" fill="#a51818"/><path d="M538.897 364.044l-11.464-15.543a6 6 0 0 1 1.267-8.39l43.861-38.43a6 6 0 0 1 8.39 1.267l20.964 25.043a6 6 0 0 1-1.267 8.39l-53.361 28.93a6 6 0 0 1-8.39-1.267z" fill="#2f2e41"/><path d="M609.373 530.252h-14.759a6.51 6.51 0 0 1-6.5-6.5V400.737a6.51 6.51 0 0 1 6.5-6.5h14.759a6.51 6.51 0 0 1 6.5 6.5v123.015a6.51 6.51 0 0 1-6.5 6.5zm29.193 0h-14.76a6.51 6.51 0 0 1-6.5-6.5V400.737a6.51 6.51 0 0 1 6.5-6.5h14.76a6.51 6.51 0 0 1 6.5 6.5v123.015a6.51 6.51 0 0 1-6.5 6.5z" fill="#a51818"/><path fill="#3f3d56" d="M452.923 528.351h324.033v2.241H452.923z"/><circle cx="610.216" cy="195.742" r="53.519" fill="#a51818"/><path d="M693.072 467.175l-30.994-137.646v-32.521a8 8 0 0 0-8-8h-29.69v-20.913a8 8 0 0 0-8-8h-16a8 8 0 0 0-8 8v20.913h-29.69a8 8 0 0 0-8 8v171.087a7.97 7.97 0 0 0 .584 2.993c.744 3.516 3.786 6.075 7.377 6.207l125.425 4.182c7.496.197 10.897-9.552 4.989-14.301zm-82.341-252.418c-3.306-.093-7.42-.208-10.589-2.523a8.13 8.13 0 0 1-3.2-6.07 5.47 5.47 0 0 1 1.86-4.495c1.657-1.398 4.076-1.726 6.678-.961l-2.699-19.727 1.982-.271 3.172 23.19-1.654-.759c-1.919-.881-4.552-1.328-6.187.055a3.51 3.51 0 0 0-1.152 2.896 6.14 6.14 0 0 0 2.381 4.526c2.467 1.802 5.746 2.035 9.466 2.139zm-28.521-32.075h10.771v2H582.21zm34 0h10.771v2H616.21zm-52.861-21.533c-9.507-5.761-13.984-16.691-13.992-27.5a39.64 39.64 0 0 1 14.012-30.275c9.792-8.469 22.831-12.613 35.57-13.666 15.413-1.274 30.726 2.076 45.446 6.352 15.761 4.579 31.205 10.339 47.339 13.545 15.656 3.111 31.354 3.417 46.768-1.081 14.227-4.152 28.668-11.488 43.864-10.216 13.125 1.098 23.092 9.832 29.797 20.623 13.312 21.424 14.363 50.178 33.507 68.018 8.277 7.713 19.06 11.208 29.836 13.819 10.334 2.504 21.358 4.109 30.841 9.177 10.169 5.435 16.325 15.65 14.734 27.354-1.807 13.294-11.266 24.735-21.681 32.545a91.73 91.73 0 0 1-77.394 15.126c-27.632-7.331-50.088-28.746-79.528-30.088-16.424-.749-32.594 3.726-49.015 2.984-11.381-.514-23.63-4.722-31.557-13.185a24.71 24.71 0 0 1-6.757-14.537c-.179-1.906-3.181-1.924-3 0 1.125 11.957 9.927 20.789 20.43 25.644 5.529 2.537 11.432 4.162 17.48 4.812 8.036.888 16.229.048 24.228-.829 8.455-.927 16.924-2.069 25.448-1.967a72.74 72.74 0 0 1 22.837 4.061c14.106 4.838 26.813 12.865 40.288 19.116 13.042 6.051 26.7 9.802 41.146 9.895a96.21 96.21 0 0 0 40.368-8.657c12.478-5.684 24.203-14.169 31.972-25.608 7.284-10.724 11.108-24.793 4.553-36.799-5.138-9.41-14.936-14.172-24.816-17.103-10.952-3.25-22.399-4.734-33.12-8.781a45.6 45.6 0 0 1-15.172-9.1c-4.736-4.596-8.637-9.98-11.531-15.911-6.138-11.973-9.274-25.123-14.443-37.49-4.788-11.456-11.34-23.002-21.894-30.062a37.25 37.25 0 0 0-19.057-6.152c-7.518-.34-14.988 1.386-22.134 3.561-7.561 2.301-14.939 5.176-22.558 7.294a81.67 81.67 0 0 1-24.669 2.946c-17.122-.558-33.662-5.644-49.871-10.772-28.396-8.983-59.976-18.601-88.525-4.753-11.124 5.396-20.546 14.448-24.519 26.335-3.515 10.518-3.029 22.787 2.39 32.586 2.569 4.661 6.314 8.567 10.863 11.33 1.655 1.003 3.165-1.59 1.514-2.59z" fill="#2f2e41"/><path d="M646.088 428.594h-14.76a6.51 6.51 0 0 1-6.5-6.5V336.84a6.51 6.51 0 0 1 6.5-6.5h14.76a6.51 6.51 0 0 1 6.5 6.5v85.255a6.51 6.51 0 0 1-6.5 6.5z" fill="#a51818"/><path d="M589.116 147.907c.671 4.794 4.001 8.794 8.595 10.321s9.656.318 13.064-3.12l-2.507-.662c2.85 7.29 9.484 12.418 17.258 13.338s15.421-2.517 19.894-8.941c1.13-1.569-1.472-3.069-2.59-1.514a18.21 18.21 0 0 1-31.668-3.68 1.52 1.52 0 0 0-2.507-.662 9.76 9.76 0 0 1-16.644-5.877c-.268-1.904-3.159-1.094-2.893.798z" fill="#2f2e41"/><path d="M494.552 360.893l-.313.212-5.808-8.567a5.99 5.99 0 0 0-8.319-1.597h0l-18.15 12.304a5.99 5.99 0 0 0-1.597 8.319l31.861 46.998a5.99 5.99 0 0 0 8.319 1.597h0l18.15-12.304a5.99 5.99 0 0 0 1.597-8.319h0l-21.92-32.333.313-.212z" fill="#3f3d56"/><path d="M481.485 353.166l-2.293 1.555c.57.38.914 1.019.917 1.704s-.336 1.327-.903 1.711l-10.064 6.823c-.567.384-1.288.461-1.924.205s-1.101-.812-1.243-1.482l-2.142 1.452a4.33 4.33 0 0 0-1.154 6.014h0l30.793 45.423a4.33 4.33 0 0 0 6.014 1.154h0l17.652-11.967a4.33 4.33 0 0 0 1.154-6.014h0l-30.793-45.423a4.33 4.33 0 0 0-6.014-1.154h0z" fill="#fff"/></svg>