<svg width="84" height="84" viewBox="0 0 84 84" fill="none" xmlns="http://www.w3.org/2000/svg">
<path d="M42 64C41.4067 64 40.8266 64.1759 40.3333 64.5056C39.8399 64.8352 39.4554 65.3038 39.2284 65.852C39.0013 66.4001 38.9419 67.0033 39.0576 67.5853C39.1734 68.1672 39.4591 68.7018 39.8787 69.1213C40.2982 69.5409 40.8328 69.8266 41.4147 69.9424C41.9967 70.0581 42.5999 69.9987 43.148 69.7716C43.6962 69.5446 44.1648 69.1601 44.4944 68.6667C44.8241 68.1734 45 67.5933 45 67C45 66.2044 44.6839 65.4413 44.1213 64.8787C43.5587 64.3161 42.7957 64 42 64Z" fill="#EF4444"/>
<path d="M40 15C40 14.4477 40.4477 14 41 14H43C43.5523 14 44 14.4477 44 15V53C44 53.5523 43.5523 54 43 54H41C40.4477 54 40 53.5523 40 53V15Z" fill="#EF4444"/>
<circle cx="42" cy="42" r="40.5" stroke="#EF4444" stroke-width="3"/>
</svg>
